# xmcd CD Database Entry
#
# Track frame offsets:
# 150
# 18714
# 35899
# 58027
# 73701
# 92185
# 112111
# 133168
# 154070
# 175451
# 191265
# 210109
# 232684
# 251053
# 275117
# 296495
#
# Disc length: 4168 seconds
#
# Revision: 2
# Processed by: cddbd v1.4b41PL1 Copyright (c) Steve Scherf et al.
# Submitted via: tcd 2.0b
#
DISCID=f1104610
DTITLE=Dana Dragomir - 100% Dana Dragomir
DYEAR=1900
DGENRE=
TTITLE0=Mio min Mio
TTITLE1=Fjäril Vingad Syns på Haga
TTITLE2=The Phantom of the Opera
TTITLE3=I en Klosterträdgård
TTITLE4=Oxygene
TTITLE5=Ballad för en Panflöjt
TTITLE6=Friends for Life
TTITLE7=Brusa Högre Lilla Å
TTITLE8=Chiquitita
TTITLE9=O ce Veste Minunata
TTITLE10=Skallgång
TTITLE11=Bird on the Wire
TTITLE12=Bolero
TTITLE13=Air Romance
TTITLE14=Into the Light
TTITLE15=Den Blomstertid Nu Kommer
EXTD=
EXTT0=
EXTT1=
EXTT2=
EXTT3=
EXTT4=
EXTT5=
EXTT6=
EXTT7=
EXTT8=
EXTT9=
EXTT10=
EXTT11=
EXTT12=
EXTT13=
EXTT14=
EXTT15=
PLAYORDER=
